Coordinates
version=1
nRows=9
nColumns=36
inDegrees=yes

Units are S.I. units (second, meters, Newtons, ...)
If the header above contains a line with 'inDegrees', this indicates whether rotational values are in degrees (yes) or radians (no).

endheader
time	pelvis_tilt	pelvis_list	pelvis_rotation	pelvis_tx	pelvis_ty	pelvis_tz	hip_flexion_r	hip_adduction_r	hip_rotation_r	knee_angle_r	knee_angle_r_beta	ankle_angle_r	subtalar_angle_r	mtp_angle_r	hip_flexion_l	hip_adduction_l	hip_rotation_l	knee_angle_l	knee_angle_l_beta	ankle_angle_l	subtalar_angle_l	mtp_angle_l	lumbar_extension	lumbar_bending	lumbar_rotation	arm_flex_r	arm_add_r	arm_rot_r	elbow_flex_r	pro_sup_r	arm_flex_l	arm_add_l	arm_rot_l	elbow_flex_l	pro_sup_l
      2.27916670	     -5.46226300	      0.84282337	      3.44178697	      0.14303491	      0.76875520	     -0.08038794	     50.27172969	     -7.85456578	     -2.40858509	     70.10716885	      1.22360093	     24.52251242	     -6.66364640	     -7.49999987	     51.18453748	     -0.56487479	      0.80577940	     70.61648053	      1.23249009	     19.64729496	    -10.30413528	     -7.49999987	    -43.35423039	      4.79493703	      0.32449401	     19.45682605	    -15.96441479	      9.36638267	     46.07322000	     81.23800209	     17.27285532	     -8.04922988	     12.22062548	     56.82822597	     79.89790350
      2.28333330	     -5.86099976	      0.83504127	      3.44425238	      0.14545788	      0.76948253	     -0.08013761	     50.59487115	     -7.64843878	     -2.15088871	     70.05547039	      1.22269862	     24.36667341	     -7.04385277	     -7.49999987	     51.50272405	     -0.45875157	      0.97722124	     70.52702858	      1.23092886	     19.41843265	    -10.77831986	     -7.49999987	    -43.28998350	      4.71805876	      0.32207515	     20.13115626	    -15.83001128	      9.43867542	     45.27190180	     81.56113532	     17.50177267	     -8.13909872	     12.07673951	     57.38841876	     80.12437153
      2.28750000	     -6.28428568	      0.81700907	      3.39892404	      0.14230732	      0.76994545	     -0.07918134	     51.12881294	     -7.33309743	     -1.85988072	     70.04523418	      1.22251996	     24.10484088	     -7.42674455	     -7.49999987	     51.98239896	     -0.36328092	      1.10753830	     70.46239246	      1.22980075	     19.07993796	    -11.41300228	     -7.49999987	    -43.37376280	      4.56036512	      0.22512248	     20.89768753	    -15.73452094	      9.51228022	     44.84982350	     82.21066746	     17.64115362	     -8.35282321	     11.64452742	     58.30228424	     80.63408895
      2.29166670	     -6.66371320	      0.79586325	      3.37948440	      0.14519520	      0.76860104	     -0.07878884	     51.59884482	     -7.11025742	     -1.62899106	     70.20658522	      1.22533607	     24.02565176	     -7.74594058	     -7.49999987	     52.38077639	     -0.23876666	      1.28705971	     70.50163677	      1.23048569	     18.92898964	    -11.72914239	     -7.49999987	    -43.35496975	      4.45777197	      0.13271074	     21.60710129	    -15.54196542	      9.56898632	     44.24284706	     83.32956662	     17.74109634	     -8.36103037	     11.12914158	     59.06287528	     81.61861739
      2.29583330	     -6.93070161	      0.80977374	      3.40158592	      0.14660625	      0.76872249	     -0.07706247	     51.84909912	     -6.94708843	     -1.51010337	     70.27297893	      1.22649486	     24.11171649	     -8.03936509	     -7.49999987	     52.55315545	     -0.11323051	      1.47171100	     70.39940282	      1.22870137	     18.93004498	    -12.00459575	     -7.49999987	    -43.42628842	      4.34727449	      0.19733024	     21.69513315	    -15.66803319	      9.47950231	     44.76307569	     82.92302030	     17.97491059	     -8.44418639	     11.01549241	     59.52169904	     81.21593070
      2.30000000	     -7.25040737	      0.73729375	      3.39066514	      0.14819965	      0.76833480	     -0.07820459	     52.14555230	     -6.65085547	     -1.31894463	     70.24865099	      1.22607025	     23.62724151	     -9.01148026	     -7.49999987	     52.91168535	     -0.07690255	      1.67153657	     70.48889813	      1.23026336	     18.66395835	    -12.69958607	     -7.49999987	    -43.36602909	      4.27910853	      0.48214272	     22.03009312	    -15.74060730	      9.15601697	     44.29989846	     82.86216587	     18.27734532	     -8.32512556	     10.97905078	     60.10023048	     81.19800499
      2.30416670	     -7.67334022	      0.66678935	      3.43639343	      0.14954832	      0.76669354	     -0.07708691	     52.49515004	     -6.42052954	     -1.19476670	     70.18820576	      1.22501529	     23.62631883	     -9.15500300	     -7.49999987	     53.28361784	      0.03725479	      1.91993379	     70.47757590	      1.23006575	     18.57197706	    -13.15514967	     -7.49999987	    -43.12232494	      4.29137960	      0.48463797	     22.29919728	    -15.66333397	      8.87429929	     44.05873639	     82.72028823	     18.36429938	     -8.40213332	     10.98990700	     60.47486968	     81.12909486
      2.30833330	     -7.95688066	      0.64756213	      3.51172034	      0.15124922	      0.76866022	     -0.07624428	     52.58935851	     -6.23594863	     -1.00800310	     70.03676190	      1.22237209	     23.62056777	     -9.27557961	     -7.49999987	     53.35748796	      0.11982915	      2.06089923	     70.24666856	      1.22603565	     18.63096412	    -13.19629983	     -7.49999987	    -43.07382169	      4.26581087	      0.46442030	     22.37488142	    -15.71648497	      8.81192808	     44.40330422	     82.30394825	     18.57379987	     -8.46630651	     10.93657934	     60.73103529	     80.74850486
      2.31250000	     -8.16674708	      0.53654478	      3.51727720	      0.15269894	      0.76863318	     -0.07490705	     52.56250098	     -5.92281593	     -0.94517869	     69.77704990	      1.21783926	     23.45321988	     -9.79835737	     -7.49999987	     53.35918836	      0.12096354	      2.30200201	     70.02569409	      1.22217892	     18.40708398	    -13.59965148	     -7.49999987	    -43.08129473	      4.29008868	      0.32533151	     22.93273385	    -15.35859476	      8.06365308	     43.63944888	     86.46159652	     18.47592583	     -8.54453409	     10.20189666	     61.36256705	     85.00269934
